#!OML:ASF F:\VICON\USERDATA\INSTALL\rory3\rory3.ASF
:FULLY-SPECIFIED
:DEGREES
237
root 6.27185 17.1016 19.7864 -4.27096 41.2815 -6.50958
lowerback 6.66598 -0.737827 3.56023
upperback 0.293298 -0.527292 4.06173
thorax -3.43482 -0.270825 2.25525
lowerneck -17.9331 -3.87047 -9.671
upperneck 20.0481 -3.47101 3.7987
head 9.55312 -1.91461 2.4502
rclavicle -5.87409e-014 6.36111e-015
rhumerus -29.8798 -8.19329 -77.4924
rradius 37.5135
rwrist -5.05761
rhand -15.734 13.3341
rfingers 7.12502
rthumb 10.4567 -16.3859
lclavicle -5.87409e-014 6.36111e-015
lhumerus -36.0927 12.4983 82.7015
lradius 23.9889
lwrist -11.5807
lhand -13.6227 23.2526
lfingers 7.12502
lthumb 12.4928 52.8592
rfemur 3.25231 3.81124 34.0506
rtibia 21.2268
rfoot -17.7582 -8.97008
rtoes 1.06084
lfemur -35.3265 -5.52833 -16.3766
ltibia 46.3557
lfoot -9.86326 1.88018
ltoes -7.89444
238
root 6.42192 17.0785 19.9665 -3.91713 40.8991 -6.55922
lowerback 6.56995 -0.553221 3.84656
upperback 0.233684 -0.260656 4.0984
thorax -3.4477 -0.142544 2.10688
lowerneck -19.1953 -4.74088 -9.81156
upperneck 20.8591 -4.45608 3.5533
head 10.1477 -2.41021 2.23315
rclavicle 3.50358e-014 -1.59028e-014
rhumerus -29.4903 -8.16862 -77.1681
rradius 38.3731
rwrist -4.58008
rhand -15.6608 12.7448
rfingers 7.12502
rthumb 10.5274 -16.9715
lclavicle 3.50358e-014 -1.59028e-014
lhumerus -36.248 13.7929 82.259
lradius 22.913
lwrist -13.5269
lhand -13.1999 22.1794
lfingers 7.12502
lthumb 12.9005 51.7607
rfemur 4.1605 3.54932 34.1131
rtibia 20.4639
rfoot -17.9227 -8.76478
rtoes -0.0190474
lfemur -35.7398 -6.17848 -16.0113
ltibia 42.7599
lfoot -9.15909 2.46557
ltoes -9.73487
239
root 6.56511 17.0595 20.1578 -3.66804 40.1893 -6.81844
lowerback 6.37263 -0.275035 4.0895
upperback 0.217672 0.120456 4.20921
thorax -3.35684 0.045278 2.04859
lowerneck -18.4451 -3.9883 -10.0225
upperneck 20.0099 -3.50859 3.92439
head 9.64669 -1.94016 2.54125
rclavicle 5.83433e-014 3.18055e-015
rhumerus -29.0764 -8.24097 -76.8993
rradius 39.0919
rwrist -4.28186
rhand -15.6061 12.7424
rfingers 7.12502
rthumb 10.5802 -16.9713
lclavicle 5.83433e-014 3.18055e-015
lhumerus -36.3616 15.3359 81.6133
lradius 21.7644
lwrist -15.7123
lhand -12.8382 21.5657
lfingers 7.12502
lthumb 13.2492 51.1246
rfemur 5.01498 3.6887 34.3849
rtibia 19.6401
rfoot -18.0072 -8.24669
rtoes 0.581358
lfemur -36.1046 -6.69787 -15.2692
ltibia 39.1722
lfoot -8.50849 3.31835
ltoes -10.273
240
root 6.70948 17.0368 20.3518 -3.34379 39.5066 -6.90856
lowerback 6.24924 -0.0735989 4.17732
upperback 0.110663 0.393422 4.24154
thorax -3.39997 0.178657 2.00832
lowerneck -18.4188 -4.01487 -10.2711
upperneck 19.927 -3.53686 4.18052
head 9.62455 -1.94241 2.66779
rclavicle -8.94034e-014 -2.8625e-014
rhumerus -28.8431 -7.8461 -76.8988
rradius 39.6596
rwrist -4.45077
rhand -15.8268 12.9797
rfingers 7.12502
rthumb 10.3672 -16.7447
lclavicle -8.94034e-014 -2.8625e-014
lhumerus -36.9389 16.0436 81.2282
lradius 21.3513
lwrist -16.4968
lhand -12.713 22.7431
lfingers 7.12502
lthumb 13.3699 52.2942
rfemur 5.96398 3.89978 34.5077
rtibia 18.7952
rfoot -18.2055 -7.6818
rtoes 1.97951
lfemur -36.3446 -7.2057 -14.6053
ltibia 35.7203
lfoot -8.32086 4.5165
ltoes -7.29459
241
root 6.85983 17.017 20.5503 -2.97058 39.0896 -6.70015
lowerback 6.2493 0.0739316 4.10434
upperback -0.0366476 0.587979 4.15232
thorax -3.55338 0.272429 1.93951
lowerneck -18.1562 -3.96399 -10.034
upperneck 19.7029 -3.52699 4.03274
head 9.48892 -1.93536 2.57865
rclavicle -1.89342e-014 -4.37326e-014
rhumerus -28.645 -7.78951 -76.8552
rradius 40.0134
rwrist -4.4725
rhand -16.0179 13.1717
rfingers 7.12502
rthumb 10.1828 -16.5619
lclavicle -1.89342e-014 -4.37326e-014
lhumerus -37.7907 14.7634 81.7349
lradius 21.8149
lwrist -15.1766
lhand -12.7712 24.0204
lfingers 7.12502
lthumb 13.3137 53.5751
rfemur 7.00932 3.79806 34.3828
rtibia 18.2524
rfoot -18.471 -7.40172
rtoes 1.39622
lfemur -36.3503 -7.34877 -14.4515
ltibia 32.3435
lfoot -8.52972 5.35504
ltoes -9.79213
242
root 7.01581 17.0018 20.7358 -2.26218 38.1328 -6.27398
lowerback 6.0147 0.393146 3.9344
upperback -0.0966945 0.980523 4.03312
thorax -3.48536 0.468455 1.87573
lowerneck -18.1658 -3.88382 -9.77463
upperneck 19.4393 -3.43583 3.81179
head 9.3818 -1.89423 2.46909
rclavicle -4.40805e-014 4.69132e-014
rhumerus -28.0835 -7.90837 -76.7229
rradius 40.2093
rwrist -4.30804
rhand -15.735 13.3476
rfingers 7.12502
rthumb 10.4558 -16.3724
lclavicle -4.40805e-014 4.69132e-014
lhumerus -38.3898 13.9267 82.1902
lradius 22.1275
lwrist -14.0616
lhand -12.8385 22.7458
lfingers 7.12502
lthumb 13.2489 52.3047
rfemur 7.88935 3.98061 33.8815
rtibia 17.5869
rfoot -18.4377 -6.80826
rtoes -1.85029
lfemur -36.561 -7.28109 -14.4114
ltibia 29.2268
lfoot -9.01247 6.09837
ltoes -12.0045
243
root 7.18014 16.9885 20.8889 -1.11315 36.2905 -5.90689
lowerback 5.50919 1.00196 4.12625
upperback -0.265172 1.76878 3.84436
thorax -3.36692 0.854 1.51059
lowerneck -18.25 -3.78346 -9.54926
upperneck 19.3334 -3.317 3.66119
head 9.34378 -1.83667 2.39451
rclavicle -7.83709e-014 -1.19271e-014
rhumerus -27.5255 -7.77169 -76.6467
rradius 40.3646
rwrist -4.39391
rhand -15.8544 13.4153
rfingers 7.12502
rthumb 10.3406 -16.3105
lclavicle -7.83709e-014 -1.19271e-014
lhumerus -38.7196 15.3222 81.5119
lradius 21.5351
lwrist -15.4817
lhand -12.2976 19.0991
lfingers 7.12502
lthumb 13.7702 48.6234
rfemur 7.90736 4.60255 33.0734
rtibia 17.3419
rfoot -18.4517 -5.52289
rtoes -4.718
lfemur -37.2473 -7.0754 -14.0255
ltibia 26.3896
lfoot -9.86012 7.49613
ltoes -11.8769
